<svg width="75" height="32" viewBox="0 0 75 32" fill="none" xmlns="http://www.w3.org/2000/svg">
<path d="M28.2316 3.75774C27.7259 3.25205 26.5906 2.60982 22.3858 2.6705C19.2758 2.70843 13.6272 3.20654 10.7549 6.07886C8.19105 8.64019 8.14302 12.3722 8.55263 15.0524C8.7903 16.6225 9.42493 19.4847 10.9648 21.0246C12.5046 22.5644 15.3668 23.1965 16.9344 23.4367C17.7325 23.5608 18.5389 23.6242 19.3466 23.6264C21.5843 23.6264 24.0546 23.0903 25.9206 21.2344C28.7929 18.3621 29.2885 12.7135 29.3289 9.60353C29.3795 5.39365 28.7373 4.25079 28.2316 3.75774ZM27.4731 9.57319C27.4427 11.8488 27.1039 17.4114 24.6058 19.9222C22.583 21.9449 19.473 21.9449 17.2176 21.6036C14.9622 21.2623 13.1266 20.5644 12.2745 19.7123C11.4224 18.8602 10.7322 17.0574 10.3807 14.7692C10.0292 12.4809 10.0495 9.3962 12.0647 7.38102C14.5779 4.88543 20.1405 4.55168 22.4162 4.51881H23.1089C26.3782 4.51881 26.7196 4.86015 26.9294 5.07001C27.1393 5.27987 27.5287 5.66167 27.4731 9.57825V9.57319Z" fill="#82DB2B"/>
<path d="M16.6901 8.37479C20.9 8.31664 22.0302 8.95633 22.5359 9.46203C23.0264 9.95508 23.6813 11.0979 23.6332 15.3053V15.457C23.6323 15.5087 23.627 15.5598 23.6175 15.61C23.5857 17.073 23.4479 19.0576 23.0173 21.0389C22.3643 21.3512 21.6658 21.546 20.9595 21.6558C21.6084 19.3152 21.7478 16.78 21.7722 15.4242C21.7734 15.3803 21.7777 15.3367 21.7849 15.2939V15.2825C21.8376 11.3959 21.4571 10.9977 21.2437 10.7744L21.2388 10.7692C21.0264 10.5467 20.6395 10.1751 16.728 10.2231C14.4473 10.2534 8.87714 10.5897 6.37902 13.0904C4.36131 15.1055 4.34364 18.1903 4.69509 20.4785C5.04655 22.7668 5.73934 24.5696 6.5889 25.4217C7.43847 26.2737 9.27411 26.9716 11.532 27.3129C13.7605 27.6498 16.8141 27.6542 18.8381 25.7095C18.8588 25.6825 18.8811 25.6564 18.905 25.6316C19.4565 25.08 19.9027 24.378 20.2635 23.5952C20.9723 23.5459 21.6927 23.4349 22.3996 23.2387C21.9146 24.6049 21.2429 25.8684 20.3157 26.8356C20.289 26.8719 20.2595 26.9064 20.2274 26.9387C18.3614 28.7946 15.8911 29.3332 13.6534 29.3332C12.8456 29.3303 12.0393 29.2661 11.2413 29.141C9.6711 28.9008 6.80889 28.2687 5.26906 26.7289C3.72923 25.189 3.0971 22.3268 2.8569 20.7566C2.44729 18.0765 2.49785 14.3445 5.05918 11.7832C7.92897 8.91082 13.5775 8.41525 16.6901 8.37479Z" fill="#33B01A"/>
<path d="M34.293 20.9194H34.9459V23.4333H34.9786C35.0874 23.1667 35.2452 22.9708 35.452 22.8456C35.6642 22.715 35.9172 22.6497 36.211 22.6497C36.4722 22.6497 36.7089 22.7014 36.9211 22.8048C37.1333 22.9082 37.3129 23.0551 37.4598 23.2456C37.6121 23.436 37.7264 23.6673 37.8026 23.9393C37.8842 24.2114 37.925 24.5161 37.925 24.8534C37.925 25.1908 37.8842 25.4955 37.8026 25.7676C37.7264 26.0396 37.6121 26.2709 37.4598 26.4613C37.3129 26.6518 37.1333 26.7987 36.9211 26.9021C36.7089 27.0055 36.4722 27.0572 36.211 27.0572C35.6397 27.0572 35.2289 26.796 34.9786 26.2736H34.9459V26.9592H34.293V20.9194ZM36.0314 26.4695C36.4014 26.4695 36.6926 26.3552 36.9048 26.1267C37.117 25.8927 37.2231 25.588 37.2231 25.2126V24.4943C37.2231 24.1189 37.117 23.8169 36.9048 23.5884C36.6926 23.3544 36.4014 23.2374 36.0314 23.2374C35.8845 23.2374 35.7431 23.2592 35.607 23.3027C35.4764 23.3408 35.3622 23.3952 35.2642 23.4659C35.1663 23.5367 35.0874 23.6237 35.0275 23.7271C34.9731 23.8251 34.9459 23.9312 34.9459 24.0454V25.6125C34.9459 25.7485 34.9731 25.871 35.0275 25.9798C35.0874 26.0832 35.1663 26.173 35.2642 26.2491C35.3622 26.3199 35.4764 26.3743 35.607 26.4124C35.7431 26.4505 35.8845 26.4695 36.0314 26.4695Z" fill="white"/>
<path d="M41.5831 22.7477H42.2279L40.3425 27.9386C40.2935 28.0638 40.2446 28.1672 40.1956 28.2488C40.1466 28.3358 40.0868 28.4039 40.016 28.4528C39.9453 28.5018 39.8555 28.5372 39.7467 28.5589C39.6433 28.5807 39.5154 28.5916 39.3631 28.5916H39.0284V28.0203H39.6896L40.0079 27.1224L38.4326 22.7477H39.0856L40.0976 25.6125L40.2935 26.2981H40.3343L40.5629 25.6125L41.5831 22.7477Z" fill="white"/>
<path d="M45.0548 26.9592V21.2622H48.4501V21.8662H45.7404V23.7761H48.2134V24.3801H45.7404V26.9592H45.0548Z" fill="white"/>
<path d="M49.8751 21.7601C49.7336 21.7601 49.6303 21.7275 49.565 21.6622C49.5051 21.5914 49.4752 21.5016 49.4752 21.3928V21.2867C49.4752 21.1779 49.5051 21.0908 49.565 21.0255C49.6303 20.9548 49.7336 20.9194 49.8751 20.9194C50.0166 20.9194 50.1172 20.9548 50.1771 21.0255C50.2424 21.0908 50.275 21.1779 50.275 21.2867V21.3928C50.275 21.5016 50.2424 21.5914 50.1771 21.6622C50.1172 21.7275 50.0166 21.7601 49.8751 21.7601ZM49.5486 22.7477H50.2016V26.9592H49.5486V22.7477Z" fill="white"/>
<path d="M51.5891 26.9592V22.7477H52.242V23.4333H52.2747C52.3781 23.1939 52.5223 23.0034 52.7073 22.862C52.8977 22.7205 53.1507 22.6497 53.4663 22.6497C53.9016 22.6497 54.2444 22.7912 54.4947 23.0742C54.7505 23.3517 54.8783 23.7462 54.8783 24.2576V26.9592H54.2254V24.3719C54.2254 23.6156 53.9071 23.2374 53.2704 23.2374C53.1399 23.2374 53.012 23.2537 52.8868 23.2864C52.7671 23.319 52.6583 23.368 52.5604 23.4333C52.4624 23.4986 52.3835 23.5829 52.3237 23.6863C52.2693 23.7842 52.242 23.9012 52.242 24.0373V26.9592H51.5891Z" fill="white"/>
<path d="M56.228 20.9194H56.8809V23.4333H56.9136C57.017 23.1939 57.1611 23.0034 57.3461 22.862C57.5366 22.7205 57.7896 22.6497 58.1052 22.6497C58.5405 22.6497 58.8833 22.7912 59.1336 23.0742C59.3893 23.3517 59.5172 23.7462 59.5172 24.2576V26.9592H58.8643V24.3719C58.8643 23.6156 58.5459 23.2374 57.9093 23.2374C57.7787 23.2374 57.6509 23.2537 57.5257 23.2864C57.406 23.319 57.2972 23.368 57.1992 23.4333C57.1013 23.4986 57.0224 23.5829 56.9625 23.6863C56.9081 23.7842 56.8809 23.9012 56.8809 24.0373V26.9592H56.228V20.9194Z" fill="white"/>
<path d="M63.9275 26.9592C63.6827 26.9592 63.5058 26.8939 63.397 26.7633C63.2936 26.6327 63.2283 26.4695 63.2011 26.2736H63.1603C63.0678 26.5348 62.9155 26.7307 62.7033 26.8613C62.491 26.9919 62.238 27.0572 61.9442 27.0572C61.498 27.0572 61.1498 26.9429 60.8995 26.7144C60.6546 26.4858 60.5322 26.1757 60.5322 25.7839C60.5322 25.3867 60.6764 25.082 60.9648 24.8698C61.2586 24.6576 61.7129 24.5515 62.3278 24.5515H63.1603V24.1352C63.1603 23.8359 63.0787 23.6074 62.9155 23.4496C62.7522 23.2918 62.5019 23.2129 62.1646 23.2129C61.9088 23.2129 61.6939 23.27 61.5198 23.3843C61.3511 23.4986 61.2096 23.6509 61.0954 23.8414L60.7036 23.4741C60.8179 23.2456 61.0001 23.0524 61.2504 22.8946C61.5007 22.7314 61.8163 22.6497 62.1972 22.6497C62.7087 22.6497 63.1059 22.7749 63.3889 23.0252C63.6718 23.2755 63.8133 23.6237 63.8133 24.0699V26.3879H64.2948V26.9592H63.9275ZM62.0503 26.5021C62.2135 26.5021 62.3632 26.4831 62.4992 26.445C62.6352 26.4069 62.7522 26.3525 62.8502 26.2818C62.9481 26.211 63.0243 26.1294 63.0787 26.0369C63.1331 25.9444 63.1603 25.8438 63.1603 25.7349V25.0412H62.2952C61.9197 25.0412 61.6449 25.0956 61.4708 25.2044C61.3021 25.3132 61.2178 25.471 61.2178 25.6778V25.8492C61.2178 26.056 61.2913 26.2165 61.4382 26.3307C61.5905 26.445 61.7946 26.5021 62.0503 26.5021Z" fill="white"/>
<path d="M67.7824 22.7477H68.4271L66.5418 27.9386C66.4928 28.0638 66.4438 28.1672 66.3948 28.2488C66.3459 28.3358 66.286 28.4039 66.2153 28.4528C66.1445 28.5018 66.0548 28.5372 65.9459 28.5589C65.8426 28.5807 65.7147 28.5916 65.5623 28.5916H65.2277V28.0203H65.8888L66.2071 27.1224L64.6319 22.7477H65.2848L66.2969 25.6125L66.4928 26.2981H66.5336L66.7621 25.6125L67.7824 22.7477Z" fill="white"/>
<path d="M36.6723 18.2056L33.334 7.84943H35.6189L37.1619 12.8198L37.978 16.0691H38.0225L38.8088 12.8198L40.3519 7.84943H42.5626L39.1946 18.2056H36.6723Z" fill="white"/>
<path d="M47.0788 13.3094L46.0848 11.2323H46.0402V18.2056H43.9186V7.84943H46.3815L49.2154 12.7456L50.2094 14.8228H50.2539V7.84943H52.3756V18.2056H49.9127L47.0788 13.3094Z" fill="white"/>
<path d="M58.0082 18.3837C57.0982 18.3837 56.3267 18.2304 55.6937 17.9237C55.0606 17.6072 54.5216 17.2017 54.0764 16.7071L55.5601 15.2086C56.2624 15.9999 57.1279 16.3955 58.1566 16.3955C58.7105 16.3955 59.121 16.2818 59.3881 16.0543C59.6551 15.8268 59.7887 15.5251 59.7887 15.1492C59.7887 14.8624 59.7096 14.625 59.5513 14.4371C59.393 14.2392 59.0716 14.1057 58.5869 14.0365L57.5631 13.9029C56.4652 13.7644 55.6591 13.4331 55.1447 12.9088C54.6402 12.3846 54.388 11.6873 54.388 10.8168C54.388 10.3519 54.477 9.92661 54.6551 9.54085C54.8331 9.15509 55.0854 8.82373 55.4118 8.54677C55.7481 8.26981 56.1536 8.05715 56.6284 7.90878C57.1131 7.75052 57.662 7.67139 58.2753 7.67139C59.0567 7.67139 59.7442 7.79503 60.3376 8.04231C60.9311 8.28959 61.4405 8.65063 61.8659 9.12541L60.3673 10.6388C60.12 10.3519 59.8184 10.1195 59.4623 9.94145C59.1161 9.75351 58.6759 9.65954 58.1418 9.65954C57.6373 9.65954 57.2614 9.74856 57.0142 9.92661C56.7669 10.1047 56.6432 10.3519 56.6432 10.6685C56.6432 11.0245 56.7372 11.2817 56.9251 11.44C57.123 11.5982 57.4395 11.712 57.8747 11.7812L58.8985 11.9444C59.9667 12.1126 60.758 12.444 61.2724 12.9385C61.7867 13.4232 62.0439 14.1156 62.0439 15.0157C62.0439 15.5103 61.9549 15.9653 61.7768 16.3807C61.5988 16.7961 61.3367 17.1522 60.9905 17.449C60.6542 17.7457 60.2338 17.9781 59.7293 18.1463C59.2249 18.3046 58.6512 18.3837 58.0082 18.3837Z" fill="white"/>
<path d="M68.0977 18.3837C67.3955 18.3837 66.7624 18.2749 66.1986 18.0573C65.6348 17.8298 65.1551 17.4984 64.7594 17.0632C64.3638 16.6181 64.0571 16.0691 63.8395 15.4163C63.6219 14.7536 63.5131 13.9821 63.5131 13.1017C63.5131 12.2313 63.6219 11.4598 63.8395 10.7872C64.0571 10.1047 64.3638 9.5359 64.7594 9.0809C65.1551 8.61601 65.6348 8.26487 66.1986 8.02747C66.7624 7.79008 67.3955 7.67139 68.0977 7.67139C69.0572 7.67139 69.8485 7.86921 70.4717 8.26487C71.0948 8.65063 71.5943 9.26389 71.9702 10.1047L70.0266 11.1136C69.8881 10.6783 69.6705 10.3322 69.3737 10.075C69.0869 9.80791 68.6615 9.67438 68.0977 9.67438C67.435 9.67438 66.9009 9.89199 66.4953 10.3272C66.0997 10.7525 65.9019 11.3757 65.9019 12.1967V13.8584C65.9019 14.6794 66.0997 15.3075 66.4953 15.7427C66.9009 16.168 67.435 16.3807 68.0977 16.3807C68.6517 16.3807 69.0918 16.2323 69.4182 15.9356C69.7545 15.629 70.0018 15.263 70.1601 14.8377L71.9999 15.9059C71.6141 16.6972 71.1047 17.3105 70.4717 17.7457C69.8485 18.171 69.0572 18.3837 68.0977 18.3837Z" fill="white"/>
</svg>
